<svg width="24" height="24" viewBox="0 0 24 24" fill="none" xmlns="http://www.w3.org/2000/svg">
<path d="M12.0058 8.0058C11.2147 8.0058 10.4413 8.24039 9.78352 8.67992C9.12572 9.11945 8.61303 9.74416 8.31028 10.4751C8.00753 11.206 7.92832 12.0102 8.08266 12.7862C8.237 13.5621 8.61796 14.2748 9.17737 14.8342C9.73678 15.3936 10.4495 15.7746 11.2254 15.9289C12.0014 16.0833 12.8056 16.0041 13.5365 15.7013C14.2674 15.3986 14.8922 14.8859 15.3317 14.2281C15.7712 13.5703 16.0058 12.7969 16.0058 12.0058C16.0058 10.9449 15.5844 9.92752 14.8342 9.17737C14.0841 8.42723 13.0667 8.0058 12.0058 8.0058ZM12.0058 14.0058C11.6102 14.0058 11.2236 13.8885 10.8947 13.6687C10.5658 13.449 10.3094 13.1366 10.158 12.7712C10.0067 12.4057 9.96706 12.0036 10.0442 11.6156C10.1214 11.2277 10.3119 10.8713 10.5916 10.5916C10.8713 10.3119 11.2277 10.1214 11.6156 10.0442C12.0036 9.96706 12.4057 10.0067 12.7712 10.158C13.1366 10.3094 13.449 10.5658 13.6687 10.8947C13.8885 11.2236 14.0058 11.6102 14.0058 12.0058C14.0058 12.5362 13.7951 13.0449 13.42 13.42C13.0449 13.7951 12.5362 14.0058 12.0058 14.0058ZM21.7158 11.2958L19.3658 9.0058V5.6458C19.3658 5.38058 19.2604 5.12623 19.0729 4.93869C18.8854 4.75116 18.631 4.6458 18.3658 4.6458H15.0558L12.7158 2.2958C12.6228 2.20207 12.5122 2.12768 12.3904 2.07691C12.2685 2.02614 12.1378 2 12.0058 2C11.8738 2 11.7431 2.02614 11.6212 2.07691C11.4994 2.12768 11.3888 2.20207 11.2958 2.2958L9.0058 4.6458H5.6458C5.38058 4.6458 5.12623 4.75116 4.93869 4.93869C4.75116 5.12623 4.6458 5.38058 4.6458 5.6458V9.0058L2.2958 11.2958C2.20207 11.3888 2.12768 11.4994 2.07691 11.6212C2.02614 11.7431 2 11.8738 2 12.0058C2 12.1378 2.02614 12.2685 2.07691 12.3904C2.12768 12.5122 2.20207 12.6228 2.2958 12.7158L4.6458 15.0558V18.3658C4.6458 18.631 4.75116 18.8854 4.93869 19.0729C5.12623 19.2604 5.38058 19.3658 5.6458 19.3658H9.0058L11.3458 21.7158C11.4388 21.8095 11.5494 21.8839 11.6712 21.9347C11.7931 21.9855 11.9238 22.0116 12.0558 22.0116C12.1878 22.0116 12.3185 21.9855 12.4404 21.9347C12.5622 21.8839 12.6728 21.8095 12.7658 21.7158L15.1058 19.3658H18.4158C18.681 19.3658 18.9354 19.2604 19.1229 19.0729C19.3104 18.8854 19.4158 18.631 19.4158 18.3658V15.0558L21.7658 12.7158C21.8563 12.6196 21.9269 12.5064 21.9734 12.3827C22.0199 12.2591 22.0415 12.1274 22.0369 11.9954C22.0322 11.8633 22.0014 11.7335 21.9463 11.6135C21.8912 11.4934 21.8129 11.3854 21.7158 11.2958ZM17.6658 13.9358C17.5713 14.0284 17.4961 14.1389 17.4446 14.2607C17.3931 14.3826 17.3663 14.5135 17.3658 14.6458V17.3658H14.6458C14.5135 17.3663 14.3826 17.3931 14.2607 17.4446C14.1389 17.4961 14.0284 17.5713 13.9358 17.6658L12.0058 19.5958L10.0758 17.6658C9.98318 17.5713 9.87274 17.4961 9.75086 17.4446C9.62899 17.3931 9.49811 17.3663 9.3658 17.3658H6.6458V14.6458C6.64525 14.5135 6.61845 14.3826 6.56695 14.2607C6.51546 14.1389 6.44029 14.0284 6.3458 13.9358L4.4158 12.0058L6.3458 10.0758C6.44029 9.98318 6.51546 9.87274 6.56695 9.75086C6.61845 9.62899 6.64525 9.49811 6.6458 9.3658V6.6458H9.3658C9.49811 6.64525 9.62899 6.61845 9.75086 6.56695C9.87274 6.51546 9.98318 6.44029 10.0758 6.3458L12.0058 4.4158L13.9358 6.3458C14.0284 6.44029 14.1389 6.51546 14.2607 6.56695C14.3826 6.61845 14.5135 6.64525 14.6458 6.6458H17.3658V9.3658C17.3663 9.49811 17.3931 9.62899 17.4446 9.75086C17.4961 9.87274 17.5713 9.98318 17.6658 10.0758L19.5958 12.0058L17.6658 13.9358Z" fill="white"/>
</svg>
